<svg width="24" height="23" viewBox="0 0 24 23" fill="none" xmlns="http://www.w3.org/2000/svg">
<g clip-path="url(#clip0_201_288)">
<path d="M17.6301 22.6963C18.0025 22.6963 18.3247 22.5602 18.5969 22.2881C18.869 22.016 19.0051 21.6937 19.0051 21.3213V2.07129C19.0051 1.69889 18.869 1.37663 18.5969 1.10449C18.3247 0.832357 18.0025 0.696289 17.6301 0.696289H8.00507C7.63267 0.696289 7.3104 0.832357 7.03827 1.10449C6.76613 1.37663 6.63007 1.69889 6.63007 2.07129V21.3213C6.63007 21.6937 6.76613 22.016 7.03827 22.2881C7.3104 22.5602 7.63267 22.6963 8.00507 22.6963H17.6301ZM12.1301 20.5479C12.1301 20.333 12.2053 20.1504 12.3557 20C12.506 19.8496 12.6887 19.7744 12.9035 19.7744C13.1183 19.7744 13.301 19.8496 13.4514 20C13.6017 20.1504 13.6769 20.333 13.6769 20.5479C13.6769 20.7627 13.6017 20.9453 13.4514 21.0957C13.301 21.2461 13.1183 21.3213 12.9035 21.3213C12.6887 21.3213 12.506 21.2461 12.3557 21.0957C12.2053 20.9453 12.1301 20.7627 12.1301 20.5479ZM15.5676 2.07129C15.7538 2.07129 15.9149 2.13932 16.051 2.27539C16.187 2.41146 16.2551 2.57259 16.2551 2.75879C16.2551 2.94499 16.187 3.10612 16.051 3.24219C15.9149 3.37826 15.7538 3.44629 15.5676 3.44629H14.1926C14.0064 3.44629 13.8452 3.37826 13.7092 3.24219C13.5731 3.10612 13.5051 2.94499 13.5051 2.75879C13.5051 2.57259 13.5731 2.41146 13.7092 2.27539C13.8452 2.13932 14.0064 2.07129 14.1926 2.07129H15.5676ZM12.1301 2.75879C12.1301 2.94499 12.062 3.10612 11.926 3.24219C11.7899 3.37826 11.6288 3.44629 11.4426 3.44629C11.2564 3.44629 11.0952 3.37826 10.9592 3.24219C10.8231 3.10612 10.7551 2.94499 10.7551 2.75879C10.7551 2.57259 10.8231 2.41146 10.9592 2.27539C11.0952 2.13932 11.2564 2.07129 11.4426 2.07129C11.6288 2.07129 11.7899 2.13932 11.926 2.27539C12.062 2.41146 12.1301 2.57259 12.1301 2.75879ZM8.00507 4.82129H17.6301V18.5713H8.00507V4.82129Z" fill="black" fill-opacity="0.64"/>
</g>
<defs>
<clipPath id="clip0_201_288">
<rect width="23" height="22" fill="white" transform="matrix(1 0 0 -1 0.630066 22.6963)"/>
</clipPath>
</defs>
</svg>
