<svg width="24" height="23" viewBox="0 0 24 23" fill="none" xmlns="http://www.w3.org/2000/svg">
<g clip-path="url(#clip0_201_276)">
<path d="M21.7551 3.38623H2.50507C2.13267 3.38623 1.8104 3.5223 1.53827 3.79443C1.26613 4.06657 1.13007 4.38883 1.13007 4.76123V18.5112C1.13007 18.8836 1.26613 19.2059 1.53827 19.478C1.8104 19.7502 2.13267 19.8862 2.50507 19.8862H21.7551C22.1275 19.8862 22.4497 19.7502 22.7219 19.478C22.994 19.2059 23.1301 18.8836 23.1301 18.5112V4.76123C23.1301 4.38883 22.994 4.06657 22.7219 3.79443C22.4497 3.5223 22.1275 3.38623 21.7551 3.38623ZM8.95038 13.0542L12.1301 15.2241L15.3098 13.0327L20.7883 18.5112H3.47186L8.95038 13.0542ZM2.50507 17.5444V8.67139L7.79022 12.2593L2.50507 17.5444ZM16.4484 12.2378L21.7551 8.58545V17.5444L16.4484 12.2378ZM21.7551 4.76123V6.99561L21.7336 6.95264L12.1301 13.5483L2.50507 7.01709V4.76123H21.7551Z" fill="black" fill-opacity="0.64"/>
</g>
<defs>
<clipPath id="clip0_201_276">
<rect width="23" height="22" fill="white" transform="matrix(1 0 0 -1 0.630066 22.6362)"/>
</clipPath>
</defs>
</svg>
