<svg width="24" height="23" viewBox="0 0 24 23" fill="none" xmlns="http://www.w3.org/2000/svg">
<g clip-path="url(#clip0_201_261)">
<path d="M2.26875 11.4644L12.1301 2.91357L21.9914 11.4644C22.063 11.5216 22.1346 11.5646 22.2062 11.5933C22.2779 11.6219 22.3566 11.6362 22.4426 11.6362C22.5428 11.6362 22.6359 11.6147 22.7219 11.5718C22.8078 11.5288 22.8866 11.4715 22.9582 11.3999C23.0871 11.2567 23.1444 11.092 23.1301 10.9058C23.1158 10.7196 23.037 10.562 22.8937 10.4331L12.5812 1.49561C12.4523 1.38102 12.302 1.32373 12.1301 1.32373C11.9582 1.32373 11.8078 1.38102 11.6789 1.49561L8.00508 4.67529V3.38623C8.00508 3.01383 7.86901 2.69157 7.59688 2.41943C7.32474 2.1473 7.00247 2.01123 6.63008 2.01123C6.25768 2.01123 5.93542 2.1473 5.66328 2.41943C5.39115 2.69157 5.25508 3.01383 5.25508 3.38623V7.06006L1.36641 10.4331C1.22318 10.5477 1.1444 10.7017 1.13008 10.895C1.11576 11.0884 1.17305 11.2567 1.30195 11.3999C1.43086 11.5431 1.58841 11.6219 1.77461 11.6362C1.96081 11.6506 2.12552 11.5933 2.26875 11.4644ZM9.38008 14.3862H14.8801V21.2612H19.0051C19.3775 21.2612 19.6997 21.1252 19.9719 20.853C20.244 20.5809 20.3801 20.2586 20.3801 19.8862V13.1401C20.3801 12.9396 20.3371 12.7463 20.2512 12.5601C20.1652 12.3739 20.0435 12.2163 19.8859 12.0874L13.0109 6.4585C12.882 6.34391 12.7424 6.26156 12.592 6.21143C12.4416 6.1613 12.2876 6.13623 12.1301 6.13623C11.9725 6.13623 11.8186 6.1613 11.6682 6.21143C11.5178 6.26156 11.3781 6.34391 11.2492 6.4585L4.37422 12.0874C4.21667 12.2163 4.09492 12.3739 4.00898 12.5601C3.92305 12.7463 3.88008 12.9396 3.88008 13.1401V19.8862C3.88008 20.2586 4.01615 20.5809 4.28828 20.853C4.56042 21.1252 4.88268 21.2612 5.25508 21.2612H9.38008V14.3862Z" fill="black" fill-opacity="0.64"/>
</g>
<defs>
<clipPath id="clip0_201_261">
<rect width="23" height="22" fill="white" transform="matrix(1 0 0 -1 0.630066 22.6362)"/>
</clipPath>
</defs>
</svg>
