<svg width="18" height="18" viewBox="0 0 18 18" fill="none" xmlns="http://www.w3.org/2000/svg">
<path d="M16.7567 13.2183V4.71826C16.7567 4.25342 16.5907 3.85498 16.2587 3.52295C15.9266 3.19092 15.5282 3.0249 15.0634 3.0249H4.00671C3.54187 3.0249 3.14343 3.19092 2.8114 3.52295C2.47937 3.85498 2.31335 4.25342 2.31335 4.71826V13.2183C2.31335 13.6831 2.47937 14.0815 2.8114 14.4136C3.14343 14.7456 3.54187 14.9116 4.00671 14.9116H15.0634C15.5282 14.9116 15.9266 14.7456 16.2587 14.4136C16.5907 14.0815 16.7567 13.6831 16.7567 13.2183ZM7.42664 12.355V5.58154L12.5067 8.96826L7.42664 12.355Z" fill="#444444"/>
</svg>
