<svg width="33" height="33" viewBox="0 0 33 33" fill="none" xmlns="http://www.w3.org/2000/svg">
<g clip-path="url(#clip0_201_570)">
<path d="M31.215 4.18506C30.5692 4.56006 29.8973 4.88298 29.1994 5.15381C28.5015 5.42464 27.7775 5.63298 27.0275 5.77881C26.4442 5.15381 25.7358 4.65381 24.9025 4.27881C24.0692 3.90381 23.1837 3.71631 22.2462 3.71631C21.3296 3.71631 20.4754 3.89339 19.6837 4.24756C18.8921 4.58089 18.1994 5.04443 17.6056 5.63818C17.0119 6.23193 16.5379 6.92464 16.1837 7.71631C15.8504 8.52881 15.6837 9.38298 15.6837 10.2788C15.6837 10.5288 15.6994 10.7788 15.7306 11.0288C15.7619 11.2788 15.7983 11.5288 15.84 11.7788C14.4858 11.7163 13.1733 11.508 11.9025 11.1538C10.6108 10.7996 9.39208 10.3257 8.24625 9.73193C7.10041 9.13818 6.0275 8.43506 5.0275 7.62256C4.0275 6.81006 3.12125 5.90381 2.30875 4.90381C2.03791 5.40381 1.82437 5.92985 1.66812 6.48193C1.51187 7.03402 1.43375 7.61214 1.43375 8.21631C1.43375 9.36214 1.69937 10.4142 2.23062 11.3726C2.76187 12.3309 3.465 13.1017 4.34 13.6851C3.79833 13.6642 3.2775 13.5809 2.7775 13.4351C2.2775 13.2892 1.80875 13.0913 1.37125 12.8413C1.37125 12.8621 1.37125 12.8778 1.37125 12.8882C1.37125 12.8986 1.37125 12.9142 1.37125 12.9351C1.37125 14.5184 1.87645 15.9142 2.88687 17.1226C3.89729 18.3309 5.1525 19.0809 6.6525 19.3726C6.36083 19.4559 6.07437 19.5132 5.79312 19.5444C5.51187 19.5757 5.215 19.5913 4.9025 19.5913C4.69416 19.5913 4.48583 19.5861 4.2775 19.5757C4.06916 19.5653 3.87125 19.5392 3.68375 19.4976C4.10041 20.7892 4.86604 21.8621 5.98062 22.7163C7.0952 23.5705 8.37125 24.0184 9.80875 24.0601C8.68375 24.9351 7.42854 25.6226 6.04312 26.1226C4.6577 26.6226 3.19416 26.8726 1.6525 26.8726C1.38166 26.8726 1.11604 26.8621 0.855621 26.8413C0.595205 26.8205 0.339996 26.7996 0.0899963 26.7788C0.819163 27.2371 1.57958 27.6434 2.37125 27.9976C3.16291 28.3726 3.98062 28.6851 4.82437 28.9351C5.66812 29.1851 6.53791 29.383 7.43375 29.5288C8.30875 29.6538 9.215 29.7163 10.1525 29.7163C13.1733 29.7163 15.84 29.1538 18.1525 28.0288C20.4858 26.883 22.4442 25.4142 24.0275 23.6226C25.6108 21.8309 26.8087 19.8309 27.6212 17.6226C28.4337 15.3934 28.84 13.1955 28.84 11.0288C28.84 10.883 28.8348 10.7424 28.8244 10.6069C28.814 10.4715 28.8087 10.3309 28.8087 10.1851C29.4546 9.72673 30.0535 9.2111 30.6056 8.63818C31.1577 8.06527 31.6525 7.44548 32.09 6.77881C31.5067 7.04964 30.8973 7.2736 30.2619 7.45068C29.6265 7.62777 28.9754 7.75798 28.3087 7.84131C28.9962 7.42464 29.59 6.90381 30.09 6.27881C30.59 5.65381 30.965 4.95589 31.215 4.18506Z" fill="white"/>
</g>
<defs>
<clipPath id="clip0_201_570">
<rect width="32" height="32" fill="white" transform="matrix(1 0 0 -1 0.0899963 32.7163)"/>
</clipPath>
</defs>
</svg>
