<svg width="33" height="33" viewBox="0 0 33 33" fill="none" xmlns="http://www.w3.org/2000/svg">
<g clip-path="url(#clip0_201_577)">
<path d="M16.09 3.59131C18.2358 3.59131 19.6369 3.59652 20.2931 3.60693C20.9494 3.61735 21.7046 3.64339 22.5587 3.68506C23.3296 3.72673 23.9442 3.80485 24.4025 3.91943C24.8608 4.03402 25.2358 4.14339 25.5275 4.24756C25.9025 4.39339 26.2306 4.56006 26.5119 4.74756C26.7931 4.93506 27.0796 5.16423 27.3712 5.43506C27.6421 5.72673 27.8712 6.01318 28.0587 6.29443C28.2462 6.57568 28.4129 6.90381 28.5587 7.27881C28.6629 7.57048 28.7723 7.94548 28.8869 8.40381C29.0015 8.86214 29.0796 9.47673 29.1212 10.2476C29.1629 11.1017 29.189 11.8569 29.1994 12.5132C29.2098 13.1694 29.215 14.5705 29.215 16.7163C29.215 18.8621 29.2098 20.2632 29.1994 20.9194C29.189 21.5757 29.1629 22.3309 29.1212 23.1851C29.0796 23.9559 29.0015 24.5705 28.8869 25.0288C28.7723 25.4871 28.6629 25.8621 28.5587 26.1538C28.4129 26.5288 28.2462 26.8569 28.0587 27.1382C27.8712 27.4194 27.6421 27.7059 27.3712 27.9976C27.0796 28.2684 26.7931 28.4976 26.5119 28.6851C26.2306 28.8726 25.9025 29.0392 25.5275 29.1851C25.2358 29.2892 24.8608 29.3986 24.4025 29.5132C23.9442 29.6278 23.3296 29.7059 22.5587 29.7476C21.7046 29.7892 20.9494 29.8153 20.2931 29.8257C19.6369 29.8361 18.2358 29.8413 16.09 29.8413C13.9442 29.8413 12.5431 29.8361 11.8869 29.8257C11.2306 29.8153 10.4754 29.7892 9.62125 29.7476C8.85041 29.7059 8.23583 29.6278 7.7775 29.5132C7.31916 29.3986 6.94416 29.2892 6.6525 29.1851C6.2775 29.0392 5.94937 28.8726 5.66812 28.6851C5.38687 28.4976 5.10041 28.2684 4.80875 27.9976C4.53791 27.7059 4.30875 27.4194 4.12125 27.1382C3.93375 26.8569 3.76708 26.5288 3.62125 26.1538C3.51708 25.8621 3.4077 25.4871 3.29312 25.0288C3.17854 24.5705 3.10041 23.9559 3.05875 23.1851C3.01708 22.3309 2.99104 21.5757 2.98062 20.9194C2.9702 20.2632 2.965 18.8621 2.965 16.7163C2.965 14.5705 2.9702 13.1694 2.98062 12.5132C2.99104 11.8569 3.01708 11.1017 3.05875 10.2476C3.10041 9.47673 3.17854 8.86214 3.29312 8.40381C3.4077 7.94548 3.51708 7.57048 3.62125 7.27881C3.76708 6.90381 3.93375 6.57568 4.12125 6.29443C4.30875 6.01318 4.53791 5.72673 4.80875 5.43506C5.10041 5.16423 5.38687 4.93506 5.66812 4.74756C5.94937 4.56006 6.2775 4.39339 6.6525 4.24756C6.94416 4.14339 7.31916 4.03402 7.7775 3.91943C8.23583 3.80485 8.85041 3.72673 9.62125 3.68506C10.4754 3.64339 11.2306 3.61735 11.8869 3.60693C12.5431 3.59652 13.9442 3.59131 16.09 3.59131ZM16.09 0.716309C13.9233 0.716309 12.4962 0.721517 11.8087 0.731934C11.1212 0.74235 10.3504 0.768392 9.49625 0.810059C8.64208 0.851725 7.9077 0.935059 7.29312 1.06006C6.67854 1.18506 6.12125 1.35173 5.62125 1.56006C5.07958 1.76839 4.57958 2.01839 4.12125 2.31006C3.66291 2.60173 3.215 2.96631 2.7775 3.40381C2.34 3.84131 1.97541 4.28923 1.68375 4.74756C1.39208 5.20589 1.14208 5.70589 0.933746 6.24756C0.725413 6.74756 0.558746 7.30485 0.433746 7.91943C0.308746 8.53402 0.225413 9.26839 0.183746 10.1226C0.14208 10.9767 0.116038 11.7476 0.105621 12.4351C0.0952047 13.1226 0.0899963 14.5496 0.0899963 16.7163C0.0899963 18.883 0.0952047 20.3101 0.105621 20.9976C0.116038 21.6851 0.14208 22.4559 0.183746 23.3101C0.225413 24.1642 0.308746 24.8986 0.433746 25.5132C0.558746 26.1278 0.725413 26.6851 0.933746 27.1851C1.14208 27.7267 1.39208 28.2267 1.68375 28.6851C1.97541 29.1434 2.34 29.5913 2.7775 30.0288C3.215 30.4663 3.66291 30.8309 4.12125 31.1226C4.57958 31.4142 5.07958 31.6642 5.62125 31.8726C6.12125 32.0809 6.67854 32.2476 7.29312 32.3726C7.9077 32.4976 8.64208 32.5809 9.49625 32.6226C10.3504 32.6642 11.1212 32.6903 11.8087 32.7007C12.4962 32.7111 13.9233 32.7163 16.09 32.7163C18.2567 32.7163 19.6837 32.7111 20.3712 32.7007C21.0587 32.6903 21.8296 32.6642 22.6837 32.6226C23.5379 32.5809 24.2723 32.4976 24.8869 32.3726C25.5015 32.2476 26.0587 32.0809 26.5587 31.8726C27.1004 31.6642 27.6004 31.4142 28.0587 31.1226C28.5171 30.8309 28.965 30.4663 29.4025 30.0288C29.84 29.5913 30.2046 29.1434 30.4962 28.6851C30.7879 28.2267 31.0379 27.7267 31.2462 27.1851C31.4546 26.6851 31.6212 26.1278 31.7462 25.5132C31.8712 24.8986 31.9546 24.1642 31.9962 23.3101C32.0379 22.4559 32.064 21.6851 32.0744 20.9976C32.0848 20.3101 32.09 18.883 32.09 16.7163C32.09 14.5496 32.0848 13.1226 32.0744 12.4351C32.064 11.7476 32.0379 10.9767 31.9962 10.1226C31.9546 9.26839 31.8712 8.53402 31.7462 7.91943C31.6212 7.30485 31.4546 6.74756 31.2462 6.24756C31.0379 5.70589 30.7879 5.20589 30.4962 4.74756C30.2046 4.28923 29.84 3.84131 29.4025 3.40381C28.965 2.96631 28.5171 2.60173 28.0587 2.31006C27.6004 2.01839 27.1004 1.76839 26.5587 1.56006C26.0587 1.35173 25.5015 1.18506 24.8869 1.06006C24.2723 0.935059 23.5379 0.851725 22.6837 0.810059C21.8296 0.768392 21.0587 0.74235 20.3712 0.731934C19.6837 0.721517 18.2567 0.716309 16.09 0.716309ZM16.09 8.49756C14.965 8.49756 13.9025 8.71631 12.9025 9.15381C11.9025 9.57048 11.0275 10.1538 10.2775 10.9038C9.5275 11.6538 8.94416 12.5288 8.5275 13.5288C8.09 14.5288 7.87125 15.5913 7.87125 16.7163C7.87125 17.8413 8.09 18.9038 8.5275 19.9038C8.94416 20.9038 9.5275 21.7788 10.2775 22.5288C11.0275 23.2788 11.9025 23.8621 12.9025 24.2788C13.9025 24.7163 14.965 24.9351 16.09 24.9351C17.215 24.9351 18.2775 24.7163 19.2775 24.2788C20.2775 23.8621 21.1525 23.2788 21.9025 22.5288C22.6525 21.7788 23.2358 20.9038 23.6525 19.9038C24.09 18.9038 24.3087 17.8413 24.3087 16.7163C24.3087 15.5913 24.09 14.5288 23.6525 13.5288C23.2358 12.5288 22.6525 11.6538 21.9025 10.9038C21.1525 10.1538 20.2775 9.57048 19.2775 9.15381C18.2775 8.71631 17.215 8.49756 16.09 8.49756ZM16.09 22.0601C14.6108 22.0601 13.3504 21.5392 12.3087 20.4976C11.2671 19.4559 10.7462 18.1955 10.7462 16.7163C10.7462 15.2371 11.2671 13.9767 12.3087 12.9351C13.3504 11.8934 14.6108 11.3726 16.09 11.3726C17.5692 11.3726 18.8296 11.8934 19.8712 12.9351C20.9129 13.9767 21.4337 15.2371 21.4337 16.7163C21.4337 18.1955 20.9129 19.4559 19.8712 20.4976C18.8296 21.5392 17.5692 22.0601 16.09 22.0601ZM26.5587 8.18506C26.5587 8.70589 26.3712 9.15381 25.9962 9.52881C25.6212 9.90381 25.1629 10.0913 24.6212 10.0913C24.1004 10.0913 23.6525 9.90381 23.2775 9.52881C22.9025 9.15381 22.715 8.70589 22.715 8.18506C22.715 7.64339 22.9025 7.18506 23.2775 6.81006C23.6525 6.43506 24.1004 6.24756 24.6212 6.24756C25.1629 6.24756 25.6212 6.43506 25.9962 6.81006C26.3712 7.18506 26.5587 7.64339 26.5587 8.18506Z" fill="white"/>
</g>
<defs>
<clipPath id="clip0_201_577">
<rect width="32" height="32" fill="white" transform="matrix(1 0 0 -1 0.0899963 32.7163)"/>
</clipPath>
</defs>
</svg>
