<svg width="33" height="33" viewBox="0 0 33 33" fill="none" xmlns="http://www.w3.org/2000/svg">
<g clip-path="url(#clip0_201_584)">
<path d="M27.7775 5.74756C25.9442 5.64339 24.0483 5.54964 22.09 5.46631C20.1317 5.40381 18.1525 5.36735 16.1525 5.35693C14.1525 5.34652 12.1629 5.37256 10.1837 5.43506C8.20458 5.49756 6.2775 5.60173 4.4025 5.74756C3.25666 5.89339 2.31916 6.52881 1.59 7.65381C0.86083 8.77881 0.45458 9.88298 0.371246 10.9663C0.183746 13.1955 0.0899963 15.1069 0.0899963 16.7007C0.0899963 18.2944 0.183746 20.2059 0.371246 22.4351C0.45458 23.5184 0.855621 24.6278 1.57437 25.7632C2.29312 26.8986 3.24625 27.5392 4.43375 27.6851C6.30875 27.8101 8.23583 27.9038 10.215 27.9663C12.1942 28.0496 14.1837 28.0913 16.1837 28.0913C18.1837 28.0913 20.1629 28.0601 22.1212 27.9976C24.0796 27.9351 25.965 27.8309 27.7775 27.6851C28.9025 27.4976 29.8348 26.8465 30.5744 25.7319C31.314 24.6174 31.7254 23.5184 31.8087 22.4351C31.9129 21.3309 31.9858 20.2996 32.0275 19.3413C32.0692 18.4038 32.09 17.4767 32.09 16.5601C32.09 15.6434 32.0692 14.7163 32.0275 13.7788C31.9858 12.8205 31.9129 11.7892 31.8087 10.6851C31.7254 9.62256 31.3556 8.54964 30.6994 7.46631C30.0431 6.38298 29.0692 5.81006 27.7775 5.74756ZM12.09 22.3726V10.9038L22.09 16.6538L12.09 22.3726Z" fill="white"/>
</g>
<defs>
<clipPath id="clip0_201_584">
<rect width="32" height="32" fill="white" transform="matrix(1 0 0 -1 0.0899963 32.7163)"/>
</clipPath>
</defs>
</svg>
