<svg width="30" height="31" viewBox="0 0 30 31" fill="none" xmlns="http://www.w3.org/2000/svg">
<path d="M10.5176 19.187L15.9375 13.7671L21.3574 19.187C21.5332 19.3823 21.7529 19.48 22.0166 19.48C22.2803 19.48 22.5 19.3823 22.6758 19.187C22.8711 19.0112 22.9688 18.7964 22.9688 18.5425C22.9688 18.2886 22.8711 18.064 22.6758 17.8687L16.6113 11.8042C16.5137 11.7065 16.4062 11.6333 16.2891 11.5845C16.1719 11.5356 16.0547 11.5112 15.9375 11.5112C15.8203 11.5112 15.7031 11.5356 15.5859 11.5845C15.4688 11.6333 15.3613 11.7065 15.2637 11.8042L9.19922 17.8687C9.00391 18.064 8.90625 18.2886 8.90625 18.5425C8.90625 18.7964 9.00391 19.0112 9.19922 19.187C9.375 19.3823 9.59473 19.48 9.8584 19.48C10.1221 19.48 10.3418 19.3823 10.5176 19.187Z" fill="white"/>
</svg>
