<svg width="53" height="23" viewBox="0 0 53 23" fill="none" xmlns="http://www.w3.org/2000/svg">
<g clip-path="url(#clip0_201_203)">
<g opacity="0.6">
<path d="M13.8352 6.31105L14.2427 5.90353L13.8271 5.50431C12.8002 4.51794 11.4159 3.75732 9.4899 3.75732C6.01531 3.75732 3.08655 6.58536 3.08655 10.0802C3.08655 13.5751 6.01531 16.4031 9.4899 16.4031C11.3504 16.4031 12.7859 15.7865 13.913 14.6198C15.095 13.4353 15.4355 11.806 15.4355 10.5441C15.4355 10.1501 15.4024 9.77189 15.338 9.44994L15.2472 8.9959H8.92507V11.7027H12.5626C12.4328 12.152 12.2372 12.4773 11.9985 12.7165C11.5249 13.1844 10.8069 13.7026 9.4899 13.7026C7.49233 13.7026 5.92322 12.0976 5.92322 10.0802C5.92322 8.06294 7.49233 6.45793 9.4899 6.45793C10.5715 6.45793 11.354 6.8802 11.9428 7.43116L12.3418 7.8045L12.7281 7.41814L13.8352 6.31105Z" fill="white" stroke="white" stroke-width="1.12966"/>
<path d="M19.4043 16.397C21.7307 16.397 23.6244 14.5751 23.6244 12.1275C23.6244 9.66625 21.7295 7.85791 19.4043 7.85791C17.0793 7.85791 15.1843 9.66625 15.1843 12.1275C15.1843 14.5751 17.078 16.397 19.4043 16.397ZM19.4043 10.4471C20.168 10.4471 20.8929 11.0775 20.8929 12.1275C20.8929 13.1671 20.166 13.8077 19.4043 13.8077C18.6438 13.8077 17.9158 13.162 17.9158 12.1275C17.9158 11.0826 18.6417 10.4471 19.4043 10.4471Z" fill="white" stroke="white" stroke-width="1.12966"/>
<path d="M27.6023 13.8077H27.5991C26.8385 13.8077 26.1105 13.162 26.1105 12.1275C26.1105 11.0826 26.8365 10.4471 27.5991 10.4471C28.3627 10.4471 29.0876 11.0775 29.0876 12.1275C29.0876 13.1701 28.3586 13.812 27.6023 13.8077ZM27.5929 16.397C29.9193 16.397 31.8129 14.5751 31.8129 12.1275C31.8129 9.66625 29.918 7.85791 27.5929 7.85791C25.2678 7.85791 23.3728 9.66625 23.3728 12.1275C23.3728 14.5757 25.2734 16.397 27.5929 16.397Z" fill="white" stroke="white" stroke-width="1.12966"/>
<path d="M39.804 8.64548V8.08068H37.1281V8.17296C36.7139 7.97581 36.2227 7.85184 35.6828 7.85184C33.5111 7.85184 31.5679 9.7481 31.5679 12.14C31.5679 13.7417 32.4445 15.1131 33.679 15.8405L33.6295 15.861L32.2132 16.4486L31.6914 16.6651L31.908 17.1868C32.377 18.3168 33.6232 19.7245 35.7138 19.7245C36.776 19.7245 37.8127 19.4124 38.5861 18.6632C39.3642 17.9094 39.804 16.7831 39.804 15.3004V8.64548ZM34.367 16.1648C34.7851 16.3158 35.2289 16.3971 35.6828 16.3971C36.1955 16.3971 36.6662 16.2866 37.0693 16.1041C37.0033 16.3971 36.8873 16.6094 36.7491 16.7579C36.5373 16.9855 36.2067 17.1353 35.7138 17.1353C35.027 17.1353 34.569 16.6476 34.367 16.1648ZM35.8251 10.4473C36.5573 10.4473 37.2394 11.0861 37.2394 12.1461C37.2394 13.1851 36.5649 13.814 35.8251 13.814C35.0398 13.814 34.3242 13.156 34.3242 12.1461C34.3242 11.1103 35.0468 10.4473 35.8251 10.4473ZM42.655 4.71815V4.15332H39.8987V16.1807H42.655V4.71815Z" fill="white" stroke="white" stroke-width="1.12966"/>
<path d="M48.8109 12.8822L48.3453 12.5718L48.0306 13.0346C47.687 13.5399 47.2698 13.8202 46.6731 13.8202C46.3488 13.8202 46.1011 13.7464 45.9052 13.6228C45.8524 13.5896 45.801 13.5512 45.7511 13.5071L50.0437 11.7279L50.5577 11.5148L50.3524 10.9976L50.1875 10.5823C49.8465 9.67297 48.7642 7.86426 46.4876 7.86426C44.2409 7.86426 42.4778 9.64428 42.4778 12.1338C42.4778 14.5042 44.2266 16.4034 46.6669 16.4034C48.6282 16.4034 49.763 15.1991 50.2278 14.5089L50.5449 14.0382L50.0727 13.7234L48.8109 12.8822ZM46.8779 10.4646L45.4205 11.0682C45.7063 10.6357 46.1816 10.4226 46.5433 10.4226C46.6677 10.4226 46.7794 10.4382 46.8779 10.4646Z" fill="white" stroke="white" stroke-width="1.12966"/>
</g>
<path d="M9.48989 15.8384C6.31704 15.8384 3.65137 13.2532 3.65137 10.0803C3.65137 6.90753 6.31704 4.32227 9.48989 4.32227C11.2464 4.32227 12.4957 5.00879 13.4358 5.91177L12.3287 7.01886C11.6545 6.38801 10.7392 5.89322 9.48989 5.89322C7.17054 5.89322 5.35838 7.76103 5.35838 10.0803C5.35838 12.3997 7.17054 14.2675 9.48989 14.2675C10.9928 14.2675 11.8463 13.6614 12.3967 13.1171C12.8482 12.6656 13.1389 12.0224 13.2502 11.138H9.48989V9.56084H14.7841C14.8397 9.83911 14.8707 10.1793 14.8707 10.5442C14.8707 11.7255 14.5491 13.1851 13.51 14.2242C12.4957 15.2756 11.2092 15.8384 9.48989 15.8384Z" fill="#4285F4"/>
<path d="M23.0596 12.1276C23.0596 14.2614 21.4206 15.8323 19.4043 15.8323C17.3881 15.8323 15.7491 14.2614 15.7491 12.1276C15.7491 9.9814 17.3881 8.42285 19.4043 8.42285C21.4206 8.42285 23.0596 9.9814 23.0596 12.1276ZM21.4577 12.1276C21.4577 10.7917 20.5052 9.88244 19.4043 9.88244C18.3034 9.88244 17.351 10.7978 17.351 12.1276C17.351 13.4449 18.3034 14.3727 19.4043 14.3727C20.5052 14.3727 21.4577 13.4511 21.4577 12.1276Z" fill="#E94235"/>
<path d="M31.2481 12.1276C31.2481 14.2614 29.6091 15.8323 27.5929 15.8323C25.5828 15.8323 23.9377 14.2614 23.9377 12.1276C23.9377 9.9814 25.5766 8.42285 27.5929 8.42285C29.6091 8.42285 31.2481 9.9814 31.2481 12.1276ZM29.6524 12.1276C29.6524 10.7917 28.7 9.88244 27.5991 9.88244C26.4982 9.88244 25.5457 10.7978 25.5457 12.1276C25.5457 13.4449 26.4982 14.3727 27.5991 14.3727C28.7 14.3788 29.6524 13.4511 29.6524 12.1276Z" fill="#FABB05"/>
<path d="M39.2391 8.6453V15.3002C39.2391 18.0401 37.6248 19.1595 35.7138 19.1595C33.9139 19.1595 32.8378 17.9535 32.4296 16.9701L33.8459 16.3825C34.0995 16.9886 34.718 17.6999 35.7138 17.6999C36.9383 17.6999 37.6929 16.9392 37.6929 15.5229V14.9909H37.6372C37.2723 15.4424 36.5673 15.8321 35.6828 15.8321C33.8274 15.8321 32.1327 14.2179 32.1327 12.1398C32.1327 10.0493 33.8336 8.4165 35.6828 8.4165C36.5673 8.4165 37.2723 8.81234 37.6372 9.24522H37.6929V8.6453H39.2391ZM37.8042 12.1459C37.8042 10.841 36.9321 9.88227 35.8251 9.88227C34.6994 9.88227 33.7593 10.8347 33.7593 12.1459C33.7593 13.4386 34.6994 14.3787 35.8251 14.3787C36.9321 14.3787 37.8042 13.4386 37.8042 12.1459Z" fill="#4285F4"/>
<path d="M42.0902 4.71777V15.6155H40.4635V4.71777H42.0902Z" fill="#34A853"/>
<path d="M48.4976 13.3518L49.7594 14.193C49.3511 14.7991 48.3678 15.8382 46.6669 15.8382C44.5579 15.8382 43.0426 14.2116 43.0426 12.1335C43.0426 9.9316 44.5764 8.42871 46.4876 8.42871C48.411 8.42871 49.3511 9.95638 49.6604 10.7852L49.8274 11.2057L44.8733 13.2591C45.2506 14.0013 45.8444 14.3847 46.6731 14.3847C47.5019 14.3847 48.0771 13.9703 48.4976 13.3518ZM44.6074 12.0159L47.9225 10.6429C47.7369 10.179 47.1927 9.85742 46.5433 9.85742C45.7145 9.85742 44.5641 10.5873 44.6074 12.0159Z" fill="#E94235"/>
</g>
<defs>
<clipPath id="clip0_201_203">
<rect width="52" height="21.84" fill="white" transform="translate(0.660034 0.786133)"/>
</clipPath>
</defs>
</svg>
