<svg width="51" height="24" viewBox="0 0 51 24" fill="none" xmlns="http://www.w3.org/2000/svg">
<path fill-rule="evenodd" clip-rule="evenodd" d="M38.3142 4.47907C36.6017 4.47907 35.2134 5.12604 35.2134 5.92406C35.2134 6.72209 36.6017 7.36905 38.3142 7.36905C40.0267 7.36905 41.415 6.72209 41.415 5.92406C41.415 5.12604 40.0267 4.47907 38.3142 4.47907ZM25.09 16.225C20.185 16.225 16.2083 14.3726 16.2083 12.0865C16.2083 9.80079 20.185 7.94767 25.09 7.94767C29.9959 7.94767 33.9717 9.80079 33.9717 12.0865C33.9717 14.3726 29.9959 16.225 25.09 16.225ZM25.09 5.82892C17.6734 5.82892 11.6617 8.63036 11.6617 12.0865C11.6617 15.5423 17.6734 18.3437 25.09 18.3437C32.5067 18.3437 38.5192 15.5423 38.5192 12.0865C38.5192 8.63036 32.5067 5.82892 25.09 5.82892ZM45.405 16.7857C45.2934 17.9201 44.8867 18.5352 44.545 18.9457C44.0925 19.4882 43.5517 19.8753 42.6784 20.2827C41.805 20.69 40.9733 20.9417 39.8083 21.1529C38.9292 21.3122 37.6075 21.5013 35.175 21.5533C32.5434 21.6088 31.7542 21.6209 25.09 21.6209C18.4259 21.6209 17.6367 21.6088 15.005 21.5533C12.5725 21.5013 11.2509 21.3122 10.3717 21.1529C9.2067 20.9417 8.37501 20.69 7.50168 20.2827C6.62834 19.8753 6.08752 19.4882 5.63502 18.9457C5.29335 18.5352 4.88585 17.9201 4.77585 16.7857C4.65585 15.5594 4.63003 15.1916 4.63003 12.0865C4.63003 8.98102 4.65585 8.61327 4.77585 7.3873C4.88585 6.25298 5.29335 5.6367 5.63502 5.22778C6.08752 4.68411 6.62834 4.29733 7.50168 3.89036C8.37501 3.48339 9.2067 3.23097 10.3717 3.02049C11.2509 2.86128 12.5725 2.67177 15.005 2.62012C17.6375 2.5642 18.4267 2.55216 25.09 2.55216C31.7542 2.55216 32.5425 2.5642 35.175 2.62012C37.6075 2.67177 38.9292 2.86128 39.8083 3.02049C40.9733 3.23097 41.805 3.48339 42.6784 3.89036C43.5517 4.29733 44.0925 4.68411 44.545 5.22778C44.8867 5.6367 45.2934 6.25298 45.405 7.3873C45.525 8.61327 45.55 8.98102 45.55 12.0865C45.55 15.1916 45.525 15.5594 45.405 16.7857ZM49.94 7.28323C49.8184 6.04328 49.3958 5.19671 48.7775 4.45539C48.1392 3.68959 47.2842 3.03913 45.8942 2.39178C44.5042 1.74443 43.1092 1.346 41.4667 1.04815C39.8758 0.760394 38.0584 0.56312 35.3975 0.506424C32.7309 0.449339 31.88 0.436523 25.09 0.436523C18.3009 0.436523 17.4492 0.449339 14.7825 0.506424C12.1217 0.56312 10.3042 0.760394 8.71419 1.04815C7.07003 1.346 5.67584 1.74443 4.28584 2.39178C2.89667 3.03913 2.04167 3.68959 1.40167 4.45539C0.785006 5.19671 0.361693 6.04328 0.24086 7.28323C0.119193 8.52589 0.0900269 8.92199 0.0900269 12.0865C0.0900269 15.2503 0.119193 15.6475 0.24086 16.8898C0.361693 18.1298 0.785006 18.9767 1.40167 19.7177C2.04167 20.4842 2.89667 21.1331 4.28584 21.7813C5.67584 22.4294 7.07003 22.827 8.71419 23.1249C10.3042 23.413 12.1217 23.6095 14.7825 23.6666C17.4492 23.7229 18.3009 23.7369 25.09 23.7369C31.88 23.7369 32.7309 23.7229 35.3975 23.6666C38.0584 23.6095 39.8758 23.413 41.4667 23.1249C43.1092 22.827 44.5042 22.4294 45.8942 21.7813C47.2842 21.1331 48.1392 20.4842 48.7775 19.7177C49.3958 18.9767 49.8184 18.1298 49.94 16.8898C50.0617 15.6475 50.09 15.2503 50.09 12.0865C50.09 8.92199 50.0617 8.52589 49.94 7.28323Z" fill="black"/>
</svg>
